<svg width="111.16" height="78" viewBox="0 0 63 44" fill="none" xmlns="http://www.w3.org/2000/svg">
<g clip-path="url(#clip0_8408_90)">
<path d="M50.8479 5.80219H0V22.7309H50.8479V5.80219Z" fill="#001636"/>
<path fill-rule="evenodd" clip-rule="evenodd" d="M3.33401 9.035V19.2957H5.80782V12.9425L9.47355 19.3013H11.908V9.035H9.4117V15.0171L5.89778 9.035H3.33964H3.33401Z" fill="white"/>
<path fill-rule="evenodd" clip-rule="evenodd" d="M13.3529 9.02939L13.3417 19.2957H21.3478V17.0411H15.8886V14.9721H20.6731V12.7963H15.8886V11.2895L21.1117 11.3008V9.02939H13.3529Z" fill="#FEFEFE"/>
<path fill-rule="evenodd" clip-rule="evenodd" d="M21.8423 9.0293L24.749 19.2956H27.3296L28.6734 12.695L30.0621 19.2956H32.3728L35.302 9.03492H32.6764L31.2652 15.0733L30.0283 9.03492H27.2847L26.1096 14.7415L24.7828 9.03492H21.8311L21.8423 9.0293Z" fill="#FEFEFE"/>
<mask id="mask0_8408_90" style="mask-type:luminance" maskUnits="userSpaceOnUse" x="0" y="0" width="63" height="44">
<path d="M62.7053 0H0V44H62.7053V0Z" fill="white"/>
</mask>
<g mask="url(#mask0_8408_90)">
<path fill-rule="evenodd" clip-rule="evenodd" d="M41.1948 12.4083C41.1948 12.4083 41.5321 11.1321 39.5249 10.9353C38.1475 10.8004 37.8607 11.7674 38.0688 12.1272C38.4904 12.8694 41.6726 12.8694 43.1907 14.1512C44.495 15.2532 44.1858 17.7664 42.7971 18.6941C41.1442 19.8016 38.5298 19.6161 37.3828 19.0932C36.0616 18.5423 35.2689 17.176 35.4375 15.7592H37.8888C37.8888 15.7592 37.7595 17.3391 39.688 17.3391C41.712 17.3391 41.712 16.2821 41.296 15.8548C40.8293 15.3825 37.023 15.2195 35.9773 13.6396C35.0777 12.1891 35.5275 10.2831 36.978 9.38355C37.0005 9.37231 37.0174 9.35544 37.0399 9.3442C38.9009 8.22536 41.6558 8.77634 42.6622 9.81647C43.365 10.4911 43.736 11.4357 43.6798 12.4083H41.1835H41.1948Z" fill="white"/>
<path fill-rule="evenodd" clip-rule="evenodd" d="M45.748 0H62.7049L62.6936 16.9231H45.7593L45.748 0Z" fill="#EE1C25"/>
<path fill-rule="evenodd" clip-rule="evenodd" d="M47.4746 3.35089H51.6013V13.8533H49.15V5.77972H47.4746V3.35651V3.35089Z" fill="white"/>
<path fill-rule="evenodd" clip-rule="evenodd" d="M58.6633 8.13559C59.4504 7.65207 59.8721 6.74126 59.7259 5.83045C59.5347 4.06505 58.0561 3.17673 56.3244 3.15987C54.7108 3.0418 53.2771 4.16626 52.996 5.75736C52.833 6.69066 53.2546 7.63521 54.0699 8.12997C53.0691 8.7428 52.5125 9.8785 52.6362 11.0479C52.9623 12.8471 54.5703 14.1233 56.3975 14.0334C58.5677 13.994 59.9114 12.4872 60.0688 11.0704C60.2881 9.1476 59.2649 8.48979 58.6633 8.12997M56.3919 5.24011C56.9316 5.212 57.3926 5.62805 57.4151 6.16779C57.4151 6.20152 57.4151 6.22963 57.4151 6.26337C57.4264 6.84246 56.971 7.32036 56.3919 7.33722C55.824 7.34847 55.3574 6.90431 55.3405 6.33646C55.3405 6.30835 55.3405 6.28023 55.3405 6.25212C55.3574 5.68427 55.824 5.24011 56.3863 5.24011M56.4087 11.6326C55.7341 11.6326 55.1887 11.0817 55.1943 10.407C55.1943 10.407 55.1943 10.4014 55.1943 10.3957C55.1662 9.76043 55.6554 9.22069 56.2907 9.19258C56.33 9.19258 56.3638 9.19258 56.4031 9.19258C57.0778 9.22069 57.6007 9.78854 57.5782 10.4632C57.5557 11.0985 57.0497 11.6045 56.4144 11.6383" fill="white"/>
<path d="M50.8479 22.7309H0V44H50.8479V22.7309Z" fill="#EE1C25"/>
<path d="M10.9519 38.6927C10.2098 38.6983 9.46765 38.6253 8.74238 38.4735C8.15204 38.3498 7.58419 38.1361 7.06131 37.8325C6.6284 37.5795 6.25733 37.2197 5.99308 36.7924C5.74008 36.3651 5.61076 35.876 5.61639 35.3756C5.61639 34.9933 5.68948 34.6109 5.84128 34.2567C5.98746 33.9082 6.19548 33.5877 6.45411 33.3178C6.71273 33.0479 7.02196 32.8231 7.36492 32.6713C7.71912 32.5082 8.10144 32.4295 8.48937 32.4295C8.72551 32.4295 8.95602 32.4576 9.18092 32.5195C9.37207 32.5757 9.55199 32.66 9.71503 32.7668C9.86121 32.868 9.99615 32.9861 10.1086 33.1267C10.2154 33.256 10.2998 33.3965 10.3728 33.5427C10.4403 33.6776 10.4909 33.8238 10.519 33.97C10.5471 34.0993 10.564 34.2343 10.564 34.3692C10.564 34.6166 10.519 34.8583 10.4291 35.0888C10.3391 35.3137 10.2098 35.5218 10.0411 35.696C9.86683 35.876 9.66443 36.0165 9.43392 36.1121C9.18654 36.2189 8.91667 36.2695 8.6468 36.2639C8.40504 36.2639 8.1689 36.2245 7.94964 36.129C7.7641 36.0502 7.58981 35.9378 7.44363 35.7972C7.31432 35.6736 7.20187 35.5386 7.11191 35.3812C7.03882 35.2575 6.97698 35.1338 6.932 34.9989H6.90389C6.89265 35.3531 6.99385 35.7017 7.19063 35.9996C7.39865 36.292 7.67977 36.5281 8.00586 36.6856C8.41066 36.8823 8.83796 37.0117 9.28212 37.0791C10.3897 37.2478 11.5142 37.2478 12.6218 37.0791C13.0659 37.0117 13.4932 36.8823 13.898 36.6856C14.2241 36.5281 14.4996 36.292 14.7132 35.9996C14.91 35.7017 15.0112 35.3531 15 34.9989H14.9662C14.9213 35.1338 14.8594 35.2631 14.7863 35.3812C14.6964 35.533 14.5839 35.6736 14.4546 35.7972C14.3084 35.9378 14.1341 36.0502 13.9486 36.129C13.7293 36.2245 13.4932 36.2695 13.2514 36.2639C12.9647 36.2695 12.678 36.2133 12.4137 36.0952C11.9639 35.8928 11.6154 35.5105 11.4467 35.0439C11.368 34.8302 11.323 34.5997 11.323 34.3692C11.323 34.2005 11.3567 34.0318 11.4073 33.8688C11.4692 33.6776 11.5591 33.5034 11.6772 33.3403C11.8065 33.166 11.9639 33.0086 12.1439 32.8849C12.3463 32.7443 12.5768 32.6488 12.8242 32.6038C12.7173 32.5532 12.6049 32.5082 12.4924 32.4801C12.3744 32.4464 12.2563 32.4239 12.1382 32.407C12.0202 32.3901 11.9077 32.3789 11.8065 32.3789C11.6997 32.3789 11.6097 32.3733 11.5367 32.3733V31.0239C12.1607 31.0801 12.7679 31.2601 13.3189 31.5524C13.8418 31.8504 14.3028 32.2552 14.6683 32.7331C14.9325 32.868 15.1743 33.0423 15.3823 33.2503C15.5791 33.4471 15.7477 33.672 15.8883 33.9194C16.0176 34.1499 16.1188 34.3973 16.1919 34.6559C16.2594 34.8921 16.2931 35.1338 16.2931 35.3812C16.2931 35.8478 16.1807 36.3033 15.9614 36.7081C15.7196 37.1353 15.3767 37.4952 14.9662 37.7594C14.4546 38.0855 13.8924 38.316 13.302 38.451C12.5374 38.6253 11.7503 38.7096 10.9632 38.6983M9.21465 34.3467C9.22027 34.1949 9.15843 34.0487 9.04598 33.9531C8.93916 33.8576 8.7986 33.807 8.65242 33.8126C8.55684 33.8126 8.46688 33.8294 8.37693 33.8576C8.29259 33.8857 8.20826 33.925 8.13517 33.97C8.12955 34.015 8.1183 34.0543 8.11268 34.0937C8.10706 34.133 8.10144 34.178 8.10144 34.2174C8.09581 34.3973 8.15204 34.5716 8.27011 34.7065C8.37131 34.8246 8.51749 34.8921 8.66929 34.8921C8.74238 34.8921 8.81547 34.8752 8.88293 34.8471C8.9504 34.819 9.00662 34.7796 9.05723 34.7234C9.10783 34.6728 9.14718 34.6109 9.17529 34.5491C9.2034 34.4816 9.21465 34.4142 9.21465 34.3467ZM12.7173 34.3467C12.7173 34.4198 12.7286 34.4873 12.7567 34.5491C12.7848 34.6166 12.8242 34.6728 12.8748 34.7234C12.9254 34.774 12.9816 34.8133 13.049 34.8471C13.2627 34.9427 13.5157 34.8864 13.6675 34.7065C13.7856 34.5716 13.8418 34.3973 13.8362 34.2174C13.8362 34.178 13.8362 34.133 13.8249 34.0937C13.8193 34.0543 13.8137 34.015 13.8024 33.97C13.7237 33.925 13.645 33.8857 13.5607 33.8576C13.4707 33.8294 13.3808 33.8126 13.2852 33.8126C13.139 33.8126 12.9984 33.8632 12.8916 33.9531C12.7792 34.0487 12.7173 34.1949 12.723 34.3467" fill="white"/>
<path d="M13.9211 30.5515C13.9211 30.2367 13.6962 30.0792 13.2464 30.0792L5.61133 30.1523V28.8705L13.2464 28.7974C13.55 28.7974 13.8592 28.8311 14.1516 28.9154C14.399 28.9829 14.6239 29.0953 14.8263 29.2528C15.0118 29.3989 15.1523 29.5901 15.2479 29.8038C15.3491 30.0455 15.3997 30.3041 15.3941 30.5684C15.3997 30.827 15.3491 31.0856 15.2479 31.3274C15.1523 31.541 15.0062 31.7266 14.8263 31.8671C14.6239 32.0189 14.3933 32.1258 14.1516 32.1876C13.8536 32.2607 13.55 32.3 13.2464 32.2944H11.5541V31.0125H13.252C13.7018 31.0125 13.9267 30.8551 13.9267 30.5403" fill="white"/>
<path d="M22.9108 38.6926C22.1406 38.7038 21.3703 38.6082 20.6282 38.4058C20.0378 38.2428 19.4868 37.9729 19.0033 37.6018C18.5873 37.2757 18.2556 36.8541 18.0307 36.3706C17.8114 35.8814 17.7046 35.3473 17.7102 34.8076C17.7102 34.4983 17.7439 34.1891 17.8114 33.8911C17.8789 33.5875 17.9745 33.2952 18.1038 33.0197C18.2331 32.7442 18.3905 32.4856 18.5817 32.2494C18.7672 32.0133 18.9921 31.8053 19.2395 31.6366C19.4925 31.4623 19.7736 31.3217 20.0659 31.2262C20.3808 31.125 20.7125 31.0744 21.0498 31.0744C21.3759 31.0631 21.6964 31.1306 21.9944 31.2599C22.2361 31.3723 22.4554 31.5298 22.6297 31.7265C22.7927 31.9065 22.9108 32.1201 22.9895 32.3506C23.0626 32.5586 23.0964 32.7779 23.102 32.9972C23.102 33.2446 23.057 33.4919 22.967 33.7225C22.8771 33.9473 22.7478 34.1497 22.5791 34.324C22.4048 34.4983 22.1968 34.6445 21.9663 34.7401C21.7076 34.8469 21.4322 34.8975 21.151 34.8919C20.943 34.8919 20.735 34.8638 20.5382 34.8019C20.3639 34.7457 20.1953 34.6558 20.0491 34.5489C19.9085 34.4421 19.7848 34.3072 19.6836 34.1554C19.5824 33.9979 19.5037 33.8293 19.4475 33.655H19.38C19.3013 33.8124 19.2507 33.9755 19.217 34.1497C19.1889 34.2903 19.172 34.4365 19.172 34.577C19.1664 34.8975 19.2282 35.218 19.3519 35.516C19.4644 35.7746 19.633 36.0163 19.8354 36.2131C20.0434 36.4099 20.274 36.573 20.5326 36.6966C20.7912 36.826 21.0667 36.9272 21.3478 37.0059C21.6233 37.079 21.8988 37.1352 22.1799 37.1633C22.4329 37.1914 22.6859 37.2083 22.9389 37.2083C23.1751 37.2083 23.4056 37.1914 23.6361 37.1633C23.9116 37.1296 24.1815 37.079 24.4513 37.0115C24.7324 36.9384 25.0079 36.8484 25.2778 36.7304C25.5364 36.6179 25.7838 36.4718 26.0031 36.2918C26.2111 36.1175 26.3854 35.9039 26.5203 35.6678C26.6553 35.4091 26.7227 35.1224 26.7171 34.83C26.7227 34.4983 26.644 34.1666 26.4922 33.8743C26.346 33.5988 26.1493 33.357 25.9131 33.1602C25.677 32.9634 25.4127 32.7948 25.126 32.6711C24.8505 32.5474 24.5694 32.4518 24.277 32.3844L24.4963 31.035C24.7718 31.0968 25.0529 31.1699 25.3509 31.2655C25.6489 31.3611 25.9356 31.4792 26.2167 31.6253C26.4978 31.7659 26.7677 31.9402 27.0207 32.1313C27.2737 32.3281 27.4986 32.5586 27.6898 32.8173C27.8865 33.0871 28.0383 33.3907 28.1452 33.7056C28.2632 34.071 28.3195 34.4477 28.3138 34.83C28.3138 35.3698 28.1958 35.8983 27.9484 36.3818C27.6954 36.8653 27.3356 37.287 26.8914 37.6131C26.3798 37.9841 25.8063 38.254 25.1991 38.4171C24.4626 38.6195 23.6979 38.715 22.9277 38.7038M21.1567 33.5875C21.241 33.5875 21.3197 33.5707 21.3928 33.5369C21.4659 33.5032 21.5334 33.4582 21.5952 33.402C21.657 33.3458 21.702 33.2783 21.7358 33.1996C21.8426 32.9466 21.7751 32.6542 21.5727 32.4687C21.4209 32.345 21.2354 32.2775 21.0386 32.2888C20.9093 32.2888 20.7743 32.3113 20.6507 32.3562C20.5551 32.5137 20.5045 32.6992 20.4989 32.8847C20.4876 33.0759 20.5551 33.2614 20.6844 33.3964C20.8025 33.5201 20.9711 33.5931 21.1454 33.5875" fill="white"/>
<path d="M29.8993 37.2027C30.0961 37.2027 30.2873 37.1577 30.4559 37.0677C30.619 36.9778 30.7595 36.8541 30.872 36.7023C30.99 36.5449 31.0744 36.3706 31.1306 36.1794C31.1924 35.977 31.2206 35.769 31.2206 35.561C31.2206 35.1505 31.1475 34.7457 30.99 34.369C30.8439 34.0205 30.6358 33.7 30.3828 33.4245C30.1355 33.1602 29.8543 32.9297 29.5395 32.7498C29.2471 32.5811 28.9323 32.4518 28.6062 32.3731L28.8255 31.0238C29.1291 31.0912 29.4327 31.1812 29.725 31.2936C30.0399 31.4117 30.3379 31.5635 30.6246 31.7322C30.9226 31.9121 31.1981 32.1201 31.4567 32.3619C31.7209 32.6093 31.9514 32.8904 32.137 33.1996C32.3394 33.5313 32.4912 33.8911 32.598 34.2622C32.7161 34.6895 32.7723 35.128 32.7667 35.5722C32.7779 36.0501 32.6992 36.5224 32.5362 36.9665C32.4012 37.332 32.1876 37.6637 31.9065 37.9392C31.6366 38.1978 31.3161 38.389 30.9675 38.507C30.5909 38.6307 30.2029 38.6926 29.8037 38.6926C29.4495 38.6926 29.1066 38.6251 28.7861 38.4733C28.4937 38.3384 28.2183 38.1528 27.9877 37.9279C27.7685 37.7199 27.5829 37.4782 27.4311 37.2139C27.3018 36.989 27.2062 36.7473 27.1444 36.4943L27.9371 34.8019C27.9877 35.0774 28.0552 35.3473 28.1395 35.6116C28.2295 35.887 28.3532 36.1457 28.5106 36.3874C28.6624 36.6179 28.8536 36.8147 29.0841 36.9722C29.3202 37.1296 29.6013 37.2083 29.8881 37.2027" fill="white"/>
<path d="M37.146 32.3731C36.8705 32.3731 36.6063 32.4574 36.3758 32.6148C36.1228 32.7891 35.9091 33.014 35.7517 33.2783C35.5662 33.5875 35.4256 33.9248 35.3357 34.2734C35.2345 34.6782 35.1782 35.0943 35.1839 35.5103C35.1839 35.9376 35.2288 36.3649 35.3075 36.7809C35.4031 37.2701 35.5493 37.7536 35.7405 38.2146L34.2674 38.6925C34.1437 38.417 34.0369 38.1303 33.9582 37.8379C33.8795 37.5512 33.812 37.2588 33.7558 36.9609C33.7052 36.6741 33.6715 36.4042 33.649 36.1569C33.6265 35.9095 33.6152 35.6902 33.6152 35.5159C33.6152 34.9143 33.6939 34.3184 33.8626 33.7393C34.0088 33.2277 34.2506 32.7441 34.5654 32.3168C34.8578 31.9233 35.2401 31.6028 35.673 31.3723C36.595 30.9113 37.6745 30.9113 38.5966 31.3723C39.0295 31.6028 39.4118 31.9233 39.7042 32.3168C40.019 32.7441 40.2608 33.2277 40.407 33.7393C40.5756 34.3128 40.66 34.9143 40.6543 35.5159C40.6543 35.6958 40.6431 35.9095 40.6206 36.1569C40.5981 36.4042 40.5588 36.6741 40.5082 36.9609C40.4576 37.2476 40.3901 37.54 40.3058 37.8379C40.227 38.1303 40.1258 38.417 39.9965 38.6925L38.5235 38.2146C38.7146 37.748 38.8552 37.2701 38.9564 36.7753C39.0407 36.3593 39.0801 35.932 39.0857 35.5103C39.0857 35.0943 39.0351 34.6782 38.9339 34.2734C38.844 33.9192 38.7034 33.5875 38.5179 33.2783C38.3604 33.014 38.1468 32.7891 37.8938 32.6148C37.6689 32.4574 37.399 32.3731 37.1235 32.3731M38.0962 31.541H36.1453L34.4305 29.843V29.7587L35.4481 28.7636L37.1235 30.8269L39.9459 27.4873L41.031 28.5499V28.6343L38.1018 31.541H38.0962Z" fill="white"/>
<path d="M42.3583 37.2027C42.5551 37.2027 42.7462 37.1577 42.9149 37.0677C43.0779 36.9778 43.2185 36.8541 43.331 36.7023C43.449 36.5449 43.5334 36.3706 43.5896 36.1794C43.6514 35.977 43.6795 35.769 43.6795 35.561C43.6795 35.1505 43.6064 34.7457 43.449 34.369C43.3028 34.0205 43.0948 33.7 42.8418 33.4245C42.5944 33.1602 42.3133 32.9297 41.9985 32.7498C41.7061 32.5811 41.3913 32.4518 41.0652 32.3731L41.2844 31.0238C41.588 31.0912 41.8916 31.1812 42.184 31.2936C42.4989 31.4117 42.7968 31.5635 43.0836 31.7322C43.3816 31.9121 43.657 32.1201 43.9157 32.3619C44.1799 32.6093 44.4104 32.8904 44.596 33.1996C44.7984 33.5313 44.9502 33.8911 45.057 34.2622C45.1751 34.6895 45.2313 35.128 45.2257 35.5722C45.2369 36.0501 45.1582 36.5224 44.9951 36.9665C44.8602 37.332 44.6466 37.6637 44.3655 37.9392C44.0956 38.1978 43.7751 38.389 43.4265 38.507C43.0498 38.6307 42.6619 38.6926 42.2627 38.6926C41.9141 38.6926 41.5656 38.6251 41.2451 38.4733C40.9527 38.3384 40.6772 38.1528 40.4467 37.9279C40.2275 37.7199 40.0419 37.4782 39.8901 37.2139C39.7608 36.989 39.6652 36.7473 39.6034 36.4943L40.3961 34.8019C40.4467 35.0774 40.5142 35.3473 40.5985 35.6116C40.6885 35.887 40.8122 36.1457 40.9696 36.3874C41.1214 36.6179 41.3126 36.8147 41.5431 36.9722C41.7792 37.1296 42.0603 37.2083 42.3471 37.2027" fill="white"/>
</g>
</g>
<defs>
<clipPath id="clip0_8408_90">
<rect width="62.7053" height="44" fill="white"/>
</clipPath>
</defs>
</svg>
