<?xml version="1.0" encoding="utf-8"?>
<!-- Generator: Adobe Illustrator 25.0.1, SVG Export Plug-In . SVG Version: 6.00 Build 0)  -->
<svg version="1.1" id="Layer_1" xmlns="http://www.w3.org/2000/svg" xmlns:xlink="http://www.w3.org/1999/xlink" x="0px" y="0px"
	 viewBox="0 0 2808.95 2485.98" style="enable-background:new 0 0 2808.95 2485.98;" xml:space="preserve">
<style type="text/css">
	.st0{display:none;}
	.st1{display:inline;}
	.st2{display:inline;clip-path:url(#SVGID_2_);}
	.st3{fill:url(#SVGID_5_);}
	.st4{fill:#A4A4A4;}
	.st5{fill:#FFFFFF;}
	.st6{fill:#1450D2;}
	.st7{fill:#DC0000;}
	.st8{clip-path:url(#SVGID_7_);}
	.st9{fill:#DC0000;stroke:#DC0000;stroke-width:10;stroke-miterlimit:10;}
</style>
<g>
	<g class="st0">
		<defs>
			<path id="SVGID_1_" d="M864.92,2255.08v-114.4h-63.68v14.39c0,9.28-2.48,16.48-7.44,21.58c-4.96,5.1-12.16,7.66-21.61,7.66
				c-17.04,0-33-6.53-47.87-19.61c-14.87-13.07-22.31-27.19-22.31-42.35c0-9.28,3.14-16.74,9.41-22.39
				c6.27-5.65,14.44-8.47,24.52-8.47h4.18v-56.85c0-12.07-2.09-21-6.27-26.8c-4.18-5.8-9.92-8.62-17.2-8.47
				c-5.42,0-10.07,0.66-13.94,1.97c-3.87,1.32-8.6,3.83-14.18,7.54l-6.04-42.93c11.46-9.59,27.96-14.39,49.5-14.39
				c21.53,0,38.46,6.96,50.78,20.88c12.32,13.92,18.48,33.65,18.48,59.17v59.64h63.68v-90.5h-16.5v-44.55h129.91v44.55H925.8v254.33
				H864.92z M1004.1,2255.08v-254.33h-39.74v-44.55h153.15v44.55h-52.29v254.33H1004.1z M1212.59,2053.42v-52.68H1103.6v-44.55
				h219.38v44.55h-49.27v53.6c0,49.51-17.89,80.21-53.68,92.13l71.34,85.4l-43.69,31.33l-144.78-172.42l42.06-32.72l39.51,36.2
				c9.76-1.08,16.88-4.79,21.38-11.14C1210.34,2076.79,1212.59,2066.88,1212.59,2053.42z M1436.58,2047.16h46.48v-46.41H1309v-44.55
				h287.47v44.55h-52.52v254.33h-60.89v-157.8h-31.14c-19.21,0-33.81,4.87-43.81,14.62c-9.99,9.75-14.99,22.59-14.99,38.52
				c0,27.38,12.16,56.93,36.49,88.64l-49.73,18.1c-15.19-18.56-26.8-38.09-34.86-58.59c-8.06-20.5-12.08-40.34-12.08-59.52
				c0.15-27.53,9.1-49.74,26.84-66.6C1377.51,2055.59,1403.12,2047.16,1436.58,2047.16z M1751.74,2255.08v-49.43
				c-14.72,6.81-31.61,10.21-50.66,10.21c-29.44,0-53.91-8.66-73.44-25.99c-19.52-17.32-29.28-39.6-29.28-66.83
				c0-27.23,8.91-48.58,26.73-64.05c17.81-15.47,40.9-23.21,69.25-23.21c22.31,0,41.44,3.17,57.4,9.51v-44.55h-169.18v-44.55h282.59
				v44.55h-52.29v254.33H1751.74z M1705.26,2168.29c18.28,0,33.77-5.11,46.48-15.32v-59.87c-13.48-6.96-29.44-10.44-47.87-10.44
				c-13.48,0-24.25,3.87-32.3,11.6c-8.06,7.74-12.08,18.41-12.08,32.02c0,13.62,4.18,24.02,12.55,31.21
				C1680.4,2164.69,1691.47,2168.29,1705.26,2168.29z M2015.51,2161.79c-10.54,4.8-23.32,7.19-38.34,7.19
				c-29.13,0-52.4-8.97-69.83-26.92c-17.43-17.94-26.14-44.09-26.14-78.43v-62.89h-29.98v-44.55h277.48v44.55h-52.52v254.33h-60.89
				L2015.51,2161.79L2015.51,2161.79z M1942.54,2078.95c0,28.31,11.31,42.47,33.93,42.47c6.66,0,12.55-0.85,17.66-2.55l-51.59-93.29
				V2078.95L1942.54,2078.95z M2015.51,2000.75h-52.99l52.99,95.14V2000.75z M2082.41,1830.65c16.42,0,31.99,2.78,46.71,8.35
				l-4.65,37.59c-9.3-2.32-17.51-3.48-24.63-3.48c-10.84-0.15-19.75,3.48-26.73,10.91c-6.97,7.43-10.46,17.17-10.46,29.24
				c0,16.4,3.87,34.04,11.62,52.91l-54.15-0.46c-4.18-8.66-7.9-19.06-11.15-31.21c-3.25-12.14-4.8-23.47-4.65-34
				c0-21.19,6.97-38.13,20.92-50.82C2039.19,1837,2058.24,1830.65,2082.41,1830.65z"/>
		</defs>
		<clipPath id="SVGID_2_" class="st1">
			<use xlink:href="#SVGID_1_"  style="overflow:visible;"/>
		</clipPath>
		<g class="st2">
			<defs>
				<rect id="SVGID_3_" x="-84.74" y="-279.41" width="2982.07" height="3172.33"/>
			</defs>
			<clipPath id="SVGID_4_">
				<use xlink:href="#SVGID_3_"  style="overflow:visible;"/>
			</clipPath>
		</g>
	</g>
</g>
<g>
	<linearGradient id="SVGID_5_" gradientUnits="userSpaceOnUse" x1="-1.9109" y1="1244.5267" x2="2809" y2="1244.5267">
		<stop  offset="0" style="stop-color:#FFFFFF"/>
		<stop  offset="0.3067" style="stop-color:#434041"/>
		<stop  offset="0.7896" style="stop-color:#474646"/>
		<stop  offset="1" style="stop-color:#4A4A4A"/>
	</linearGradient>
	<path class="st3" d="M-1.91,3H2809v2483.06H532.67c0,0-527.8,11.8-527.8-501.63S-1.91-4.38-1.91,3z"/>
	<path class="st4" d="M41.65,35.18h2723.43v2405.78H559.6c0,0-511.38,11.44-511.38-486.02S41.65,28.03,41.65,35.18z"/>
	<path class="st5" d="M2709.06,2358.96H599.1c-261.78,0-475-210.22-475-472V92.53h2584.96V2358.96z"/>
	<rect x="124.09" y="92.71" class="st6" width="1291.23" height="1674.61"/>
	<rect x="1415.54" y="93.16" class="st7" width="1293.09" height="1674.61"/>
	<g>
		<defs>
			<path id="SVGID_6_" d="M2106.39,295.3c-136.33,0-246.8,171.32-246.8,382.61c0,211.29,110.47,382.61,246.79,382.61
				c136.25,0,246.72-171.32,246.72-382.61C2353.11,466.62,2242.64,295.3,2106.39,295.3z M2473.8,1151.04l-412.85,558.9l-324.86,0
				l418.84-558.44c-213.38,80.41-417.83-14.44-520.01-161.99c-58.84-84.98-93.05-186.62-93.05-295.8
				c0-298.68,256.09-540.82,572.09-540.82c315.92,0,554.36,242.15,554.36,540.82C2668.32,923.07,2604.66,973.88,2473.8,1151.04z
				 M1364.86,1615.31L1225.44,1353l136.9-243.3h281.29L1364.86,1615.31z M249.71,1712.89c-33.12,0-60.13-27.07-60.13-60.16V1324.8
				h275.17v182.02c0,12.42,10.15,22.58,22.61,22.58h177.44v183.49L249.71,1712.89z M1051.23,1708.71l-253.13-455.35H184.33v-182.63
				h512.24h289.93h1.37l326.87,637.97H1051.23z"/>
		</defs>
		<use xlink:href="#SVGID_6_"  style="overflow:visible;fill:#FFFFFF;"/>
		<clipPath id="SVGID_7_">
			<use xlink:href="#SVGID_6_"  style="overflow:visible;"/>
		</clipPath>
		<g class="st8">
			<defs>
				<rect id="SVGID_8_" x="-76.67" y="-313.12" width="3000" height="3196"/>
			</defs>
			<use xlink:href="#SVGID_8_"  style="overflow:visible;fill:#FFFFFF;"/>
			<clipPath id="SVGID_9_">
				<use xlink:href="#SVGID_8_"  style="overflow:visible;"/>
			</clipPath>
		</g>
	</g>
</g>
<g>
	<path class="st9" d="M1142.1,2046.66c0,15.37-4.05,29.56-12.12,42.58c-8.08,13.03-19.11,23.47-33.07,31.31
		c-13.97,7.84-29.58,11.77-46.84,11.77c-17.64,0-33.53-3.93-47.67-11.77c-14.15-7.84-25.35-18.29-33.62-31.31
		c-8.27-13.03-12.4-27.22-12.4-42.58c0-14.03,3.39-27.05,10.2-39.08c6.79-12.02,16.07-21.87,27.83-29.56h-62.27v-33.07h106.91
		c4.77-6.01,7.17-13.19,7.17-21.54c0-5.67-1.1-10.85-3.31-15.53H932.13v-37.58h154.31c16.9,0,29.57-3.17,38.03-9.52
		c8.45-6.34,12.67-14.36,12.67-24.05c0-8.68-2.57-15.95-7.71-21.79c-5.15-5.84-11.02-9.93-17.64-12.27l8.27-10.02
		c11.75,4.01,21.49,10.94,29.21,20.79c7.71,9.86,11.57,21.63,11.57,35.32c0,18.04-6.71,32.4-20.12,43.09
		c-13.42,10.69-31.51,16.03-54.28,16.03h-24.8c2.2,5.35,3.31,10.86,3.31,16.53c0,7.35-1.65,14.2-4.96,20.54h106.36v33.07h-61.72
		c11.38,7.69,20.48,17.54,27.28,29.56C1138.7,2019.6,1142.1,2032.63,1142.1,2046.66z M982.84,2034.13
		c0,16.37,6.24,29.73,18.74,40.08c12.49,10.36,28.66,15.53,48.5,15.53c19.47,0,35.36-5.17,47.67-15.53
		c12.31-10.35,18.46-23.71,18.46-40.08c0-11.69-3.13-21.87-9.37-30.56c-6.25-8.68-14.42-15.36-24.52-20.04
		c-10.11-4.67-20.86-7.01-32.24-7.01c-11.39,0-22.23,2.34-32.51,7.01c-10.29,4.68-18.65,11.36-25.08,20.04
		C986.05,2012.26,982.84,2022.44,982.84,2034.13z"/>
	<path class="st9" d="M1299.16,2158.38c-9.92,0-19.2-3.09-27.83-9.27c-8.64-6.18-16.26-14.2-22.87-24.05
		c-6.61-9.85-11.85-20.54-15.71-32.06c-3.86-11.52-5.79-22.62-5.79-33.32c0-15.7,3.31-29.64,9.92-41.83
		c6.61-12.19,15.52-21.87,26.73-29.06c11.2-7.18,23.78-10.77,37.75-10.77c12.86,0,23.23,2.76,31.14,8.27
		c7.9,5.51,14.33,12.61,19.29,21.29c4.96,8.69,9.64,17.87,14.05,27.56c4.41,9.02,8.9,17.71,13.5,26.05
		c4.59,8.35,10.56,15.2,17.91,20.54c7.35,5.35,16.89,8.02,28.66,8.02c15.79,0,28.93-5.42,39.4-16.28
		c10.47-10.85,15.71-25.97,15.71-45.34c0-19.7-5.79-37.49-17.36-53.36c-11.57-15.86-27.56-29.39-47.95-40.58
		c-20.39-11.19-44-19.62-70.82-25.3l-7.71-1h-110.22v-37.58h201.15c16.9,0,29.57-3.17,38.03-9.52c8.45-6.34,12.68-14.53,12.68-24.55
		c0-8.34-2.58-15.44-7.72-21.29c-5.15-5.84-11.02-9.93-17.64-12.27l8.27-10.02c11.75,4.01,21.49,10.94,29.21,20.79
		c7.71,9.86,11.57,21.63,11.57,35.32c0,18.04-6.71,32.4-20.12,43.09c-13.42,10.69-31.51,16.03-54.28,16.03h-31.41
		c35.63,10.02,63.01,26.8,82.11,50.35c19.1,23.55,28.66,49.85,28.66,78.91c0,17.37-3.58,33.24-10.75,47.59
		c-7.16,14.36-17.08,25.89-29.76,34.57c-12.67,8.68-27.28,13.03-43.81,13.03c-13.23,0-23.61-2.75-31.14-8.27
		c-7.53-5.51-13.32-12.52-17.36-21.04c-4.05-8.52-7.91-17.45-11.57-26.8c-3.31-9.68-7.16-18.87-11.57-27.56
		c-4.41-8.68-10.47-15.78-18.19-21.29c-7.71-5.51-18.56-8.27-32.51-8.27c-18.01,0-31.6,4.43-40.78,13.28
		c-9.19,8.85-13.78,19.46-13.78,31.81c0,12.36,3.94,23.72,11.85,34.07c7.9,10.36,18.09,17.37,30.59,21.04
		c8.45,2.68,14.88,6.43,19.29,11.27c4.41,4.84,6.61,9.77,6.61,14.78C1314.59,2154.04,1309.44,2158.38,1299.16,2158.38z"/>
	<path class="st9" d="M1577.47,2112.79c4.41,5.01,9.46,12.69,15.16,23.05c5.69,10.35,10.65,22.12,14.88,35.32
		c4.22,13.19,6.34,26.97,6.34,41.33c0,16.36-3.03,30.98-9.09,43.84c-6.06,12.85-13.87,23.8-23.42,32.82
		c6.61,7.68,14.51,13.94,23.7,18.79c9.18,4.84,20.75,7.26,34.72,7.26c6.24,0,10.65,1.25,13.23,3.76c2.57,2.5,3.86,5.59,3.86,9.27
		c0,9.02-5.88,13.53-17.63,13.53c-16.53,0-30.13-4.26-40.78-12.78c-10.66-8.52-20.21-18.62-28.66-30.31
		c-18.74,13.03-39.31,19.54-61.72,19.54c-21.67,0-38.11-5.93-49.32-17.79c-11.2-11.86-16.81-25.64-16.81-41.33
		c0-15.37,4.87-27.73,14.6-37.07c9.74-9.35,22.69-14.03,38.85-14.03c13.97,0,25.17,3.26,33.62,9.77
		c8.46,6.51,15.62,14.78,21.49,24.8c5.87,10.02,12.12,20.04,18.74,30.06c9.18-7.01,16.62-15.53,22.32-25.55
		c5.69-10.02,8.54-21.54,8.54-34.57c0-17.03-4.5-32.82-13.5-47.34c-9.01-14.53-19.01-25.47-30.03-32.82
		c-9.92-6.68-14.88-13.69-14.88-21.04c0-8.68,4.41-13.03,13.23-13.03C1561.85,2098.26,1569.38,2103.11,1577.47,2112.79z
		 M1458.98,2256.07c0,11.02,4.6,19.7,13.78,26.05c9.19,6.34,21.13,9.52,35.82,9.52c17.64,0,33.99-4.01,49.05-12.02
		c-5.88-9.35-11.85-18.29-17.91-26.8c-6.06-8.52-12.86-15.45-20.39-20.79c-7.53-5.35-16.26-8.02-26.18-8.02
		c-10.28,0-18.55,3.01-24.8,9.02C1462.11,2239.04,1458.98,2246.72,1458.98,2256.07z"/>
	<path class="st9" d="M1607.22,2050.16c0-22.04,4.13-42.25,12.4-60.62c8.27-18.36,19.47-34.48,33.62-48.35
		c14.14-13.86,30.04-24.96,47.67-33.32h-93.69v-37.58h244.69c16.89,0,29.57-3.08,38.03-9.27c8.45-6.18,12.68-14.28,12.68-24.3
		c0-8.68-2.58-15.95-7.72-21.79c-5.15-5.84-11.02-9.93-17.63-12.27l8.27-10.02c11.75,4.01,21.49,10.94,29.21,20.79
		c7.72,9.86,11.57,21.63,11.57,35.32c0,18.04-6.8,32.4-20.39,43.09c-13.6,10.69-31.6,16.03-54.01,16.03h-6.61
		c16.16,7.35,29.94,17.03,41.33,29.06c11.38,12.02,17.64,26.05,18.74,42.08c9.18,11.7,15.98,24.97,20.39,39.83
		c4.41,14.87,6.61,28.48,6.61,40.83c0,16.37-3.4,29.9-10.2,40.58c-6.8,10.69-15.71,18.71-26.73,24.05
		c-11.02,5.34-22.97,8.02-35.82,8.02c-20.94,0-39.95-6.51-57.04-19.54c-17.08-13.03-28.75-29.89-35-50.6h-1.1
		c-6.25,20.71-17.82,37.58-34.72,50.6c-16.9,13.03-35.09,19.54-54.56,19.54c-11.76,0-23.06-2.75-33.89-8.27
		c-10.84-5.51-19.56-14.36-26.18-26.55C1610.53,2085.32,1607.22,2069.54,1607.22,2050.16z M1769.8,2014.59
		c2.57,12.7,7.99,24.8,16.26,36.32c8.27,11.52,18.37,20.88,30.31,28.06c11.93,7.19,24.89,10.77,38.85,10.77
		c16.16,0,28.84-4.92,38.03-14.78c9.18-9.85,13.78-23.12,13.78-39.83c0-10.69-1.84-21.04-5.51-31.06
		c-4.41,9.69-11.3,16.87-20.67,21.54c-9.37,4.68-19.2,7.01-29.48,7.01c-15.8,0-28.93-4.67-39.4-14.03
		c-10.47-9.35-15.71-19.87-15.71-31.56c0-9.68,4.04-18.7,12.12-27.05c8.08-8.34,20.2-12.53,36.37-12.53
		c13.23,0,25.35,3.34,36.37,10.02c-5.15-8.68-13.23-17.11-24.25-25.3c-11.02-8.18-23.89-14.86-38.58-20.04
		c-14.7-5.17-30.13-7.77-46.29-7.77c-19.48,0-37.57,3.93-54.28,11.77c-16.72,7.85-31.33,18.21-43.81,31.06
		c-12.49,12.86-22.23,26.89-29.21,42.08c-6.98,15.2-10.47,30.31-10.47,45.34c0,16.71,4.31,30.06,12.95,40.08
		c8.63,10.02,20.3,15.03,34.99,15.03c12.86,0,25.08-3.58,36.65-10.77c11.57-7.18,21.49-16.53,29.76-28.06
		c8.27-11.52,13.68-23.62,16.26-36.32H1769.8z M1817.74,1983.03c0,5.35,2.48,10.11,7.44,14.28c4.96,4.18,13.13,6.26,24.52,6.26
		c12.49,0,21.58-2.33,27.28-7.01c5.69-4.67,9.09-9.85,10.2-15.53c-5.15-6.01-11.12-10.69-17.91-14.03
		c-6.8-3.33-14.42-5.01-22.87-5.01c-9.19,0-16.26,2.09-21.22,6.26C1820.22,1972.43,1817.74,1977.35,1817.74,1983.03z"/>
</g>
</svg>
